<?xml version="1.0" encoding="UTF-8"?>
<svg id="Layer_2" data-name="Layer 2" xmlns="http://www.w3.org/2000/svg" viewBox="0 0 242.44 112.33">
  <defs>
    <style>
      .cls-1 {
        fill: #000000;
      }
    </style>
  </defs>
  <g id="Layer_1-2" data-name="Layer 1">
    <g>
      <path class="cls-1" d="M119.75,26.61C112.77,10.54,96.1,0,64.07,0S9.39,9.88,9.39,30.14c0,14.82,11.04,22.89,28.16,25.53C14.49,59.95,0,66.7,0,81.69c0,17.46,18.28,30.63,42.82,30.63s44.14-14.66,51.39-36.23v33.43h29.65v-18.61c-8.38-9.42-13.18-21.39-13.18-34.75,0-11.01,3.25-21.08,9.08-29.55ZM94.21,57.48c0,20.92-15.48,36.73-36.23,36.73-14.33,0-25.03-7.08-25.03-16.63,0-14.82,26.19-21.25,61.27-25.36v5.27ZM94.21,49.25c-13.67,1.32-26.68,2.47-38.21,3.79-15.65,1.32-28,.17-28-20.09,0-15.32,11.04-26.02,29.98-26.85,30.63-1.32,36.23,24.71,36.23,42.66v.49Z"/>
      <path class="cls-1" d="M160.41,79.06c-10.05-7.08-18.94-14.99-24.87-22.89h106.89C242.44,22.24,212.29.17,176.55.17c-25.26,0-45.71,10.33-56.8,26.45,2.86,6.57,4.1,14.06,4.1,22.14v42.16c11.66,13.1,30.28,21.25,52.7,21.25,33.6,0,58.63-18.12,64.56-43.98h-5.27c-10.05,30.8-37.06,37.72-75.43,10.87ZM130.6,24.05c11.36-16.14,37.39-8.07,62.09,9.22,5.44,3.79,13.84,10.71,20.09,16.96h-81.2c-5.27-9.22-6.42-18.45-.99-26.19Z"/>
    </g>
  </g>
</svg>
